<svg width="20" height="20" viewBox="0 0 20 20" fill="none" xmlns="http://www.w3.org/2000/svg">
<path d="M11.5167 18.3332H8.48335C8.09178 18.3332 7.75298 18.0607 7.66918 17.6782L7.33001 16.1082C6.87756 15.9099 6.44853 15.662 6.05085 15.369L4.52001 15.8565C4.14668 15.9756 3.74084 15.8184 3.54501 15.479L2.02501 12.8532C1.83134 12.5136 1.89806 12.0852 2.18585 11.8207L3.37335 10.7373C3.31934 10.2466 3.31934 9.75141 3.37335 9.26067L2.18585 8.17984C1.89764 7.91514 1.83089 7.48627 2.02501 7.1465L3.54168 4.519C3.7375 4.17959 4.14335 4.02245 4.51668 4.1415L6.04751 4.629C6.2509 4.4783 6.46262 4.33919 6.68168 4.21234C6.89196 4.09375 7.10838 3.98638 7.33001 3.89067L7.67001 2.32234C7.75341 1.93981 8.09184 1.66692 8.48335 1.6665H11.5167C11.9082 1.66692 12.2466 1.93981 12.33 2.32234L12.6733 3.8915C12.9073 3.99443 13.1352 4.11074 13.3558 4.23984C13.5616 4.35885 13.7605 4.48933 13.9517 4.63067L15.4833 4.14317C15.8564 4.02456 16.2618 4.18164 16.4575 4.52067L17.9742 7.14817C18.1679 7.48774 18.1011 7.9161 17.8133 8.18067L16.6258 9.264C16.6798 9.75475 16.6798 10.2499 16.6258 10.7407L17.8133 11.824C18.1011 12.0886 18.1679 12.5169 17.9742 12.8565L16.4575 15.484C16.2618 15.823 15.8564 15.9801 15.4833 15.8615L13.9517 15.374C13.7579 15.5168 13.5565 15.6489 13.3483 15.7698C13.1299 15.8964 12.9045 16.0108 12.6733 16.1123L12.33 17.6782C12.2463 18.0604 11.9079 18.3328 11.5167 18.3332ZM6.35001 13.524L7.03335 14.024C7.18739 14.1375 7.34794 14.2418 7.51418 14.3365C7.6706 14.4271 7.83165 14.5094 7.99668 14.5832L8.77418 14.924L9.15501 16.6665H10.8467L11.2275 14.9232L12.005 14.5823C12.3444 14.4327 12.6666 14.2466 12.9658 14.0273L13.65 13.5273L15.3508 14.069L16.1967 12.604L14.8775 11.4015L14.9708 10.5582C15.0118 10.1893 15.0118 9.81704 14.9708 9.44817L14.8775 8.60484L16.1975 7.39984L15.3508 5.934L13.65 6.47567L12.9658 5.97567C12.6665 5.75543 12.3444 5.56797 12.005 5.4165L11.2275 5.07567L10.8467 3.33317H9.15501L8.77251 5.0765L7.99668 5.4165C7.83152 5.48904 7.67044 5.57055 7.51418 5.66067C7.34896 5.75511 7.18926 5.85889 7.03585 5.9715L6.35168 6.4715L4.65168 5.92984L3.80418 7.39984L5.12335 8.60067L5.03001 9.44484C4.98902 9.8137 4.98902 10.186 5.03001 10.5548L5.12335 11.3982L3.80418 12.6007L4.65001 14.0657L6.35001 13.524ZM9.99668 13.3332C8.15573 13.3332 6.66335 11.8408 6.66335 9.99984C6.66335 8.15889 8.15573 6.6665 9.99668 6.6665C11.8376 6.6665 13.33 8.15889 13.33 9.99984C13.3277 11.8398 11.8367 13.3309 9.99668 13.3332ZM9.99668 8.33317C9.08618 8.33409 8.34492 9.06554 8.33187 9.97595C8.31883 10.8864 9.03882 11.6388 9.94892 11.6658C10.859 11.6928 11.6224 10.9844 11.6633 10.0748V10.4082V9.99984C11.6633 9.07936 10.9172 8.33317 9.99668 8.33317Z" fill="#3D3D3D"/>
</svg>
